<svg width="49" height="37" viewBox="0 0 49 37" fill="none" xmlns="http://www.w3.org/2000/svg">
<g opacity="0.5" clip-path="url(#clip0_826_1)">
<path d="M40.8539 3.29475C37.7945 1.8979 34.5138 0.868758 31.0836 0.279328C31.0212 0.267952 30.9588 0.296381 30.9266 0.35324C30.5047 1.09997 30.0373 2.07415 29.71 2.83985C26.0207 2.29023 22.3502 2.29023 18.7365 2.83985C18.4091 2.05713 17.9248 1.09997 17.501 0.35324C17.4688 0.298278 17.4064 0.269849 17.3439 0.279328C13.9157 0.866875 10.635 1.89601 7.57372 3.29475C7.54722 3.30612 7.5245 3.32509 7.50943 3.34971C1.28663 12.6006 -0.418052 21.6242 0.418209 30.5359C0.421993 30.5795 0.446588 30.6212 0.480645 30.6477C4.58627 33.6479 8.56326 35.4693 12.4664 36.6766C12.5289 36.6956 12.5951 36.6729 12.6348 36.6217C13.5581 35.367 14.3811 34.0441 15.0868 32.6529C15.1284 32.5714 15.0887 32.4748 15.0036 32.4425C13.6981 31.9498 12.455 31.349 11.2593 30.6667C11.1647 30.6117 11.1572 30.4771 11.2442 30.4127C11.4958 30.225 11.7475 30.0298 11.9878 29.8327C12.0312 29.7967 12.0918 29.7891 12.1429 29.8118C19.9984 33.3807 28.5029 33.3807 36.2658 29.8118C36.3169 29.7872 36.3774 29.7948 36.4228 29.8308C36.6631 30.0279 36.9148 30.225 37.1683 30.4127C37.2553 30.4771 37.2496 30.6117 37.155 30.6667C35.9593 31.3622 34.7162 31.9498 33.4089 32.4407C33.3238 32.4729 33.2859 32.5714 33.3275 32.6529C34.0484 34.0421 34.8714 35.3651 35.7776 36.6198C35.8155 36.6729 35.8836 36.6956 35.946 36.6766C39.8681 35.4693 43.8451 33.6479 47.9507 30.6477C47.9867 30.6212 48.0094 30.5814 48.0132 30.5378C49.014 20.2349 46.3368 11.2853 40.9163 3.35159C40.903 3.32509 40.8804 3.30612 40.8539 3.29475ZM16.2599 25.1096C13.8948 25.1096 11.9461 22.949 11.9461 20.2956C11.9461 17.6421 13.8571 15.4815 16.2599 15.4815C18.6816 15.4815 20.6115 17.6611 20.5736 20.2956C20.5736 22.949 18.6627 25.1096 16.2599 25.1096ZM32.2093 25.1096C29.8444 25.1096 27.8956 22.949 27.8956 20.2956C27.8956 17.6421 29.8065 15.4815 32.2093 15.4815C34.6311 15.4815 36.5609 17.6611 36.5231 20.2956C36.5231 22.949 34.6311 25.1096 32.2093 25.1096Z" fill="white"/>
</g>
<defs>
<clipPath id="clip0_826_1">
<rect width="48" height="37" fill="white" transform="translate(0.219849)"/>
</clipPath>
</defs>
</svg>
