<svg width="44" height="42" viewBox="0 0 44 42" fill="none" xmlns="http://www.w3.org/2000/svg">
<g opacity="0.5" clip-path="url(#clip0_828_2)">
<path d="M21.72 0C9.84736 0 0.219849 9.62752 0.219849 21.5042C0.219849 31.0053 6.3803 39.066 14.923 41.9094C15.9975 42.1085 16.392 41.4429 16.392 40.875C16.392 40.3622 16.372 38.6682 16.3628 36.8713C10.3814 38.1722 9.11927 34.3341 9.11927 34.3341C8.14125 31.8485 6.73207 31.1876 6.73207 31.1876C4.78136 29.8529 6.87911 29.8804 6.87911 29.8804C9.0381 30.0321 10.1749 32.0964 10.1749 32.0964C12.0925 35.3839 15.2046 34.4335 16.4315 33.884C16.6245 32.4941 17.1817 31.5455 17.7965 31.0085C13.021 30.4647 8.00097 28.6208 8.00097 20.381C8.00097 18.0333 8.84085 16.115 10.2162 14.609C9.99298 14.0674 9.25706 11.8802 10.4245 8.91817C10.4245 8.91817 12.2299 8.34022 16.3386 11.1224C18.0536 10.646 19.8929 10.407 21.72 10.3988C23.5472 10.407 25.3879 10.646 27.1061 11.1224C31.2098 8.34022 33.0127 8.91817 33.0127 8.91817C34.183 11.8802 33.4467 14.0674 33.2235 14.609C34.602 16.115 35.4362 18.0333 35.4362 20.381C35.4362 28.6404 30.4065 30.459 25.619 30.9914C26.3901 31.6587 27.0773 32.9674 27.0773 34.9737C27.0773 37.851 27.0523 40.1667 27.0523 40.875C27.0523 41.4472 27.4394 42.1177 28.5292 41.9066C37.0672 39.0599 43.2198 31.0021 43.2198 21.5042C43.2198 9.62752 33.5938 0 21.72 0ZM8.27236 30.6332C8.22501 30.74 8.05696 30.772 7.90387 30.6987C7.74793 30.6285 7.66034 30.4829 7.7109 30.3757C7.75718 30.2657 7.92559 30.235 8.08117 30.3087C8.23747 30.3789 8.32648 30.526 8.27236 30.6332ZM9.32993 31.577C9.2274 31.6721 9.02695 31.6279 8.89094 31.4776C8.75031 31.3277 8.72396 31.1272 8.82793 31.0307C8.93367 30.9356 9.12806 30.9802 9.26905 31.1301C9.40969 31.2818 9.4371 31.4808 9.32993 31.577ZM10.0555 32.7846C9.92373 32.8761 9.70833 32.7903 9.57518 32.5991C9.44345 32.4078 9.44345 32.1785 9.57803 32.0866C9.71154 31.9948 9.92373 32.0774 10.0587 32.2672C10.19 32.4616 10.19 32.6909 10.0555 32.7846ZM11.2825 34.1832C11.1647 34.3131 10.9136 34.2782 10.7299 34.1009C10.5419 33.9275 10.4896 33.6814 10.6078 33.5514C10.7271 33.4211 10.9795 33.4578 11.1647 33.6337C11.3512 33.8068 11.4082 34.0546 11.2825 34.1832ZM12.8683 34.6553C12.8163 34.8237 12.5746 34.9003 12.3311 34.8287C12.0879 34.755 11.9287 34.5577 11.9779 34.3875C12.0284 34.218 12.2712 34.1382 12.5166 34.2148C12.7594 34.2882 12.9189 34.484 12.8683 34.6553ZM14.673 34.8556C14.6791 35.0329 14.4726 35.18 14.217 35.1832C13.9599 35.1889 13.752 35.0454 13.7491 34.8709C13.7491 34.6918 13.951 34.5461 14.2081 34.5418C14.4637 34.5369 14.673 34.6793 14.673 34.8556ZM16.446 34.7876C16.4766 34.9607 16.2989 35.1384 16.0451 35.1857C15.7955 35.2313 15.5645 35.1245 15.5328 34.9528C15.5018 34.7755 15.6827 34.5978 15.9319 34.5519C16.1861 34.5077 16.4136 34.6117 16.446 34.7876Z" fill="white"/>
</g>
<defs>
<clipPath id="clip0_828_2">
<rect width="43" height="42" fill="white" transform="translate(0.219849)"/>
</clipPath>
</defs>
</svg>
