<?xml version="1.0" encoding="UTF-8" standalone="no"?>
<svg
   xmlns:dc="http://purl.org/dc/elements/1.1/"
   xmlns:cc="http://creativecommons.org/ns#"
   xmlns:rdf="http://www.w3.org/1999/02/22-rdf-syntax-ns#"
   xmlns:svg="http://www.w3.org/2000/svg"
   xmlns="http://www.w3.org/2000/svg"
   xmlns:xlink="http://www.w3.org/1999/xlink"
   xmlns:sodipodi="http://sodipodi.sourceforge.net/DTD/sodipodi-0.dtd"
   xmlns:inkscape="http://www.inkscape.org/namespaces/inkscape"
   width="500"
   height="500"
   viewBox="0 0 132.29167 132.29167"
   version="1.1"
   id="svg8"
   inkscape:version="1.0.2 (e86c870879, 2021-01-15, custom)"
   sodipodi:docname="logoNDtransperent.svg"
   inkscape:export-filename="C:\Users\vital\Рабочий стол\logoND2.png"
   inkscape:export-xdpi="96.262863"
   inkscape:export-ydpi="96.262863">
  <defs
     id="defs2">
    <linearGradient
       inkscape:collect="always"
       id="linearGradient1010">
      <stop
         style="stop-color:#ffffff;stop-opacity:1;"
         offset="0"
         id="stop1006" />
      <stop
         style="stop-color:#ffffff;stop-opacity:0;"
         offset="1"
         id="stop1008" />
    </linearGradient>
    <radialGradient
       inkscape:collect="always"
       xlink:href="#linearGradient1010"
       id="radialGradient1012"
       cx="66.14584"
       cy="66.145842"
       fx="66.14584"
       fy="66.145842"
       r="65.96521"
       gradientUnits="userSpaceOnUse"
       gradientTransform="matrix(0.83793301,0,0,0.83793301,10.720055,10.720055)" />
  </defs>
  <sodipodi:namedview
     id="base"
     pagecolor="#ffffff"
     bordercolor="#666666"
     borderopacity="1.0"
     inkscape:pageopacity="0.0"
     inkscape:pageshadow="2"
     inkscape:zoom="0.98994949"
     inkscape:cx="258.21975"
     inkscape:cy="254.37174"
     inkscape:document-units="mm"
     inkscape:current-layer="layer1"
     inkscape:document-rotation="0"
     showgrid="false"
     units="px"
     inkscape:snap-object-midpoints="true"
     inkscape:object-paths="false"
     inkscape:snap-smooth-nodes="true"
     inkscape:object-nodes="false"
     inkscape:window-width="1366"
     inkscape:window-height="715"
     inkscape:window-x="-8"
     inkscape:window-y="22"
     inkscape:window-maximized="1"
     inkscape:snap-bbox="true" />
  <metadata
     id="metadata5">
    <rdf:RDF>
      <cc:Work
         rdf:about="">
        <dc:format>image/svg+xml</dc:format>
        <dc:type
           rdf:resource="http://purl.org/dc/dcmitype/StillImage" />
        <dc:title></dc:title>
      </cc:Work>
    </rdf:RDF>
  </metadata>
  <g
     inkscape:label="Слой 1"
     inkscape:groupmode="layer"
     id="layer1">
    <rect
       style="opacity:0.41509434;fill:url(#radialGradient1012);fill-opacity:1;stroke:none;stroke-width:0.302707"
       id="rect18-6"
       width="110.54886"
       height="110.54886"
       x="10.871412"
       y="10.871413" />
    <circle
       style="fill:#f9f9f9;fill-opacity:;stroke:none;stroke-width:0.241262"
       id="path843"
       cx="66.145844"
       cy="66.145844"
       r="42.857323" />
    <circle
       style="fill:#000024;fill-opacity:1;stroke:none;stroke-width:0.294482"
       id="path843-4"
       cx="69.712402"
       cy="64.029175"
       r="38.955044" />
    <path
       id="path842"
       style="font-style:normal;font-variant:normal;font-weight:bold;font-stretch:normal;font-size:49.0364px;line-height:1.25;font-family:sans-serif;-inkscape-font-specification:'sans-serif Bold';fill:#f9f9f9;fill-opacity:1;stroke:none;stroke-width:1.15249"
       d="M 69.384898,39.733746 63.566319,38.448629 58.060595,63.378645 54.590481,36.466194 47.0032,34.790738 l -9.611147,43.517565 5.818579,1.285117 6.596927,-29.868999 3.850408,32.176164 6.115782,1.350811 z m 11.23156,10.999126 -8.926553,-1.970978 -9.610659,43.517673 8.678169,1.916688 c 1.961572,0.433219 3.714451,0.554539 5.258947,0.36435 1.544488,-0.190193 3.059671,-0.795574 4.544865,-1.816239 1.976583,-1.361699 3.840965,-3.524701 5.593586,-6.48888 1.756898,-2.983756 3.08275,-6.501799 3.977806,-10.554488 0.929473,-4.208568 1.246101,-7.970062 0.949514,-11.28464 -0.281275,-3.331632 -1.0681,-6.100588 -2.360698,-8.306901 -0.75083,-1.310153 -1.789353,-2.418341 -3.114911,-3.324128 -1.321253,-0.92527 -2.984415,-1.609505 -4.990066,-2.052457 z m -2.76976,7.909561 c 1.36649,0.301793 2.362465,0.634133 2.987352,0.99692 0.640211,0.345739 1.222937,0.872838 1.748329,1.581471 1.024448,1.431887 1.602812,3.235398 1.735044,5.410217 0.147565,2.157775 -0.09519,4.668514 -0.727741,7.532673 -0.636863,2.883647 -1.442283,5.249807 -2.416882,7.098443 -0.970295,1.829153 -2.163519,3.200422 -3.578817,4.113915 -0.814224,0.494513 -1.601781,0.790569 -2.363009,0.8881 -0.756923,0.07804 -1.890176,-0.04922 -3.399921,-0.382641 l -1.603571,-0.354453 6.015991,-27.238494 z" />
  </g>
</svg>
