<svg width="87" height="87" viewBox="0 0 87 87" fill="none" xmlns="http://www.w3.org/2000/svg">
<path d="M43.5003 61.625C42.5749 61.6203 41.6621 61.4097 40.8282 61.0084C39.9943 60.6071 39.2602 60.0253 38.6791 59.305L23.4178 40.8175C22.5261 39.7045 21.9649 38.3634 21.7982 36.947C21.6316 35.5306 21.8662 34.0958 22.4753 32.8062C22.9693 31.6855 23.7755 30.7306 24.7976 30.0557C25.8196 29.3807 27.0144 29.0143 28.2391 29H58.7616C59.9863 29.0143 61.181 29.3807 62.2031 30.0557C63.2251 30.7306 64.0313 31.6855 64.5253 32.8062C65.1344 34.0958 65.3691 35.5306 65.2024 36.947C65.0358 38.3634 64.4746 39.7045 63.5828 40.8175L48.3216 59.305C47.7405 60.0253 47.0064 60.6071 46.1725 61.0084C45.3385 61.4097 44.4258 61.6203 43.5003 61.625Z" fill="#7762D2"/>
</svg>
