<svg width="148" height="148" viewBox="0 0 148 148" fill="none" xmlns="http://www.w3.org/2000/svg">
<g clip-path="url(#clip0_1387_66)">
<path d="M126.324 21.6747C112.348 7.69838 93.7647 0.000976562 73.9994 0.000976562C54.2334 0.000976562 35.6507 7.69801 21.674 21.6747C7.6974 35.6517 0 54.2348 0 74.0005C0 93.7665 7.6974 112.35 21.6744 126.327C35.651 140.303 54.2338 148 73.9998 148C93.7654 148 112.348 140.303 126.326 126.327C140.302 112.35 148 93.7668 148 74.0005C147.999 54.2348 140.301 35.6517 126.324 21.6747ZM121.568 26.4316C134.275 39.138 141.272 56.0317 141.272 74.0005H126.024C126.024 45.3142 102.686 21.9763 73.9998 21.9763C72.2978 21.9763 70.6151 22.0612 68.9546 22.2216V6.91352C70.6251 6.79049 72.3078 6.72824 73.9998 6.72824C91.9686 6.72824 108.862 13.7256 121.568 26.4316ZM73.9994 119.297C49.0229 119.297 28.7029 98.9774 28.7029 74.0008C28.7029 49.0243 49.0229 28.7039 73.9994 28.7039C98.976 28.7039 119.296 49.0239 119.296 74.0005C119.296 98.977 98.976 119.297 73.9994 119.297Z"
fill="#e6e0e0"/>
</g>
<defs>
<clipPath id="clip0_1387_66">
<rect width="148" height="148" fill="white"/>
</clipPath>
</defs>
</svg>
