<svg width="49" height="49" viewBox="0 0 49 49" fill="none" xmlns="http://www.w3.org/2000/svg">
<g opacity="0.5" clip-path="url(#clip0_93_20)">
<path d="M43.9817 7H4.23807C1.89649 7 0 8.90826 0 11.2381V36.6665C0 39.0101 1.91043 40.9046 4.23807 40.9046H43.9817C46.3037 40.9046 48.2198 39.0181 48.2198 36.6665V11.2381C48.2198 8.91241 46.3309 7 43.9817 7ZM43.3882 9.82538C42.5223 10.6866 27.6212 25.5093 27.1067 26.0211C26.3062 26.8216 25.2419 27.2624 24.1099 27.2624C22.9779 27.2624 21.9136 26.8215 21.1105 26.0185C20.7645 25.6743 6.02776 11.0152 4.83159 9.82538H43.3882ZM2.82538 36.0914V11.8149L15.0346 23.9598L2.82538 36.0914ZM4.83338 38.0792L17.0378 25.9524L19.1153 28.0189C20.4494 29.3531 22.2232 30.0878 24.1099 30.0878C25.9966 30.0878 27.7704 29.3531 29.1019 28.0216L31.182 25.9524L43.3864 38.0792H4.83338ZM45.3944 36.0914L33.1852 23.9598L45.3944 11.8149V36.0914Z" fill="white"/>
</g>
<defs>
<clipPath id="clip0_93_20">
<rect width="48.2198" height="48.2198" fill="white"/>
</clipPath>
</defs>
</svg>
