<svg width="32" height="25" viewBox="0 0 32 25" fill="none" xmlns="http://www.w3.org/2000/svg">
<path d="M26 24.4871H20.75C20.3375 24.4871 20 24.1428 20 23.7219V21.1712C20 20.7503 20.3375 20.406 20.75 20.406H26C27.1063 20.406 28 19.4941 28 18.3654V6.12179C28 4.99308 27.1063 4.08119 26 4.08119H20.75C20.3375 4.08119 20 3.73684 20 3.31597V0.765223C20 0.34435 20.3375 0 20.75 0H26C29.3125 0 32 2.74205 32 6.12179V18.3654C32 21.7451 29.3125 24.4871 26 24.4871ZM23.0625 11.6697L12.5625 0.956529C11.625 0 10 0.66957 10 2.0406V8.16238H1.5C0.66875 8.16238 0 8.8447 0 9.69283V15.8146C0 16.6627 0.66875 17.3451 1.5 17.3451H10V23.4668C10 24.8379 11.625 25.5074 12.5625 24.5509L23.0625 13.8378C23.6437 13.2384 23.6437 12.2691 23.0625 11.6697Z" fill="white"/>
</svg>
